<mxfile host="app.diagrams.net" modified="2024-04-23T05:17:43.507Z" agent="Mozilla/5.0 (Macintosh; Intel Mac OS X 10_15_7) AppleWebKit/537.36 (KHTML, like Gecko) Chrome/124.0.0.0 Safari/537.36" version="24.2.7" etag="sWkEAzSWp0V1tZ-EWlMv" type="github">
  <diagram name="Page-1" id="gDjkLM8oGHUuADj2ssyX">
    <mxGraphModel>
      <root>
        <mxCell id="0" />
        <mxCell id="1" parent="0" />
      </root>
    </mxGraphModel>
  </diagram>
</mxfile>
